PathFileType	4	(X/Y/Z)	C:\Users\86182\Documents\cortex\Trimmed_M4_L15.trc
DataRate	CameraRate	NumFrames	NumMarkers	Units	OrigDataRate	OrigDataStartFrame	OrigNumFrames
100.00	100.00	       130	2	mm	100.00	1	       901
Frame#	Time	gripper			box			
		X1	Y1	Z1	X2	Y2	Z2	

1	0.000	275.50754	149.39111	192.17392	279.26071	146.22218	57.17859	
2	0.010	275.50528	149.39000	192.17361	279.26532	146.22276	57.17685	
3	0.020	275.50412	149.38942	192.17346	279.26935	146.22412	57.17556	
4	0.030	275.50409	149.38940	192.17345	279.27216	146.22548	57.17475	
5	0.040	275.50500	149.38986	192.17358	279.27341	146.22627	57.17443	
6	0.050	275.50684	149.39076	192.17381	279.27328	146.22639	57.17448	
7	0.060	275.50934	149.39198	192.17413	279.27249	146.22621	57.17466	
8	0.070	275.51208	149.39334	192.17450	279.27176	146.22609	57.17477	
9	0.080	275.51453	149.39453	192.17482	279.27124	146.22612	57.17475	
10	0.090	275.51636	149.39543	192.17506	279.27057	146.22598	57.17472	
11	0.100	275.51761	149.39604	192.17523	279.26956	146.22552	57.17476	
12	0.110	275.51855	149.39651	192.17535	279.26862	146.22501	57.17482	
13	0.120	275.51947	149.39696	192.17548	279.26843	146.22498	57.17477	
14	0.130	275.52042	149.39743	192.17560	279.26938	146.22568	57.17453	
15	0.140	275.52118	149.39781	192.17570	279.27115	146.22691	57.17418	
16	0.150	275.52142	149.39792	192.17574	279.27298	146.22815	57.17389	
17	0.160	275.52084	149.39764	192.17566	279.27408	146.22885	57.17377	
18	0.170	275.51932	149.39690	192.17546	279.27374	146.22855	57.17395	
19	0.180	275.51669	149.39561	192.17513	279.27167	146.22697	57.17450	
20	0.190	275.51321	149.39389	192.17465	279.26804	146.22432	57.17538	
21	0.200	275.50949	149.39207	192.17416	279.26352	146.22101	57.17651	
22	0.210	275.50647	149.39059	192.17377	279.25879	146.21753	57.17771	
23	0.220	275.50470	149.38971	192.17354	279.25452	146.21437	57.17881	
24	0.230	275.50427	149.38951	192.17349	279.25143	146.21208	57.17962	
25	0.240	275.50516	149.38994	192.17360	279.25009	146.21104	57.18000	
26	0.250	275.50720	149.39095	192.17387	279.25040	146.21121	57.18000	
27	0.260	275.51004	149.39233	192.17424	279.25162	146.21201	57.17984	
28	0.270	275.51306	149.39381	192.17464	279.25284	146.21278	57.17972	
29	0.280	275.51566	149.39508	192.17499	279.25381	146.21339	57.17965	
30	0.290	275.51755	149.39603	192.17523	279.25485	146.21408	57.17950	
31	0.300	275.51892	149.39668	192.17542	279.25623	146.21512	57.17918	
32	0.310	275.51990	149.39717	192.17554	279.25812	146.21660	57.17868	
33	0.320	275.52048	149.39745	192.17561	279.26025	146.21837	57.17809	
34	0.330	275.52039	149.39742	192.17560	279.26196	146.21989	57.17761	
35	0.340	275.51953	149.39699	192.17549	279.26218	146.22044	57.17751	
36	0.350	275.51791	149.39621	192.17529	279.26022	146.21951	57.17796	
37	0.360	275.51575	149.39517	192.17502	279.25638	146.21721	57.17886	
38	0.370	275.51318	149.39391	192.17468	279.25186	146.21437	57.17989	
39	0.380	275.51031	149.39253	192.17433	279.24841	146.21208	57.18062	
40	0.390	275.50772	149.39127	192.17400	279.24713	146.21107	57.18076	
41	0.400	275.50592	149.39040	192.17377	279.24802	146.21141	57.18034	
42	0.410	275.50513	149.39000	192.17365	279.25024	146.21265	57.17962	
43	0.420	275.50500	149.38989	192.17358	279.25278	146.21411	57.17885	
44	0.430	275.50479	149.38971	192.17349	279.25482	146.21530	57.17823	
45	0.440	275.50427	149.38930	192.17331	279.25595	146.21591	57.17790	
46	0.450	275.50381	149.38884	192.17307	279.25595	146.21577	57.17791	
47	0.460	275.50412	149.38866	192.17285	279.25476	146.21484	57.17826	
48	0.470	275.50537	149.38889	192.17273	279.25266	146.21327	57.17884	
49	0.480	275.50732	149.38947	192.17271	279.25018	146.21147	57.17950	
50	0.490	275.50928	149.39015	192.17281	279.24792	146.20982	57.18008	
51	0.500	275.51047	149.39081	192.17307	279.24609	146.20847	57.18051	
52	0.510	275.51041	149.39146	192.17366	279.24469	146.20731	57.18082	
53	0.520	275.50864	149.39227	192.17479	279.24374	146.20636	57.18102	
54	0.530	275.50461	149.39334	192.17668	279.24356	146.20576	57.18106	
55	0.540	275.49799	149.39482	192.17949	279.24423	146.20563	57.18087	
56	0.550	275.48874	149.39682	192.18324	279.24576	146.20599	57.18044	
57	0.560	275.47769	149.39931	192.18767	279.24820	146.20703	57.17974	
58	0.570	275.46674	149.40199	192.19199	279.25153	146.20894	57.17879	
59	0.580	275.45929	149.40414	192.19475	279.25552	146.21193	57.17775	
60	0.590	275.46118	149.40465	192.19356	279.25967	146.21606	57.17688	
61	0.600	275.48090	149.40189	192.18515	279.26312	146.22139	57.17657	
62	0.610	275.52924	149.39388	192.16544	279.26477	146.22780	57.17727	
63	0.620	275.61789	149.37825	192.13007	279.26382	146.23529	57.17940	
64	0.630	275.75650	149.35284	192.07559	279.25974	146.24365	57.18323	
65	0.640	275.94785	149.31647	192.00134	279.25183	146.25180	57.18888	
66	0.650	276.18088	149.27060	191.91248	279.23904	146.25716	57.19639	
67	0.660	276.42706	149.22057	191.82156	279.22049	146.25677	57.20564	
68	0.670	276.64951	149.17410	191.74454	279.19632	146.24872	57.21661	
69	0.680	276.82135	149.13742	191.69279	279.16809	146.23283	57.22966	
70	0.690	276.93393	149.11314	191.67001	279.13864	146.21059	57.24552	
71	0.700	276.99118	149.10106	191.67499	279.11090	146.18399	57.26549	
72	0.710	277.00156	149.09920	191.70551	279.08682	146.15453	57.29196	
73	0.720	276.97293	149.10497	191.76057	279.06708	146.12274	57.32870	
74	0.730	276.91000	149.11624	191.84181	279.05173	146.08881	57.38044	
75	0.740	276.81424	149.13155	191.95355	279.04102	146.05334	57.45203	
76	0.750	276.68762	149.14955	192.10149	279.03644	146.01843	57.54743	
77	0.760	276.53714	149.16861	192.28995	279.04074	145.98732	57.66955	
78	0.770	276.37692	149.18678	192.51822	279.05573	145.96300	57.82086	
79	0.780	276.23053	149.20155	192.77707	279.07898	145.94687	58.00395	
80	0.790	276.12927	149.20995	193.04955	279.10345	145.93883	58.22106	
81	0.800	276.09872	149.21075	193.31998	279.12079	145.93797	58.47274	
82	0.810	276.13693	149.20686	193.58592	279.12640	145.94305	58.75652	
83	0.820	276.20721	149.20538	193.86137	279.12189	145.95271	59.06757	
84	0.830	276.25931	149.21381	194.16664	279.11368	145.96548	59.40086	
85	0.840	276.26254	149.23453	194.51349	279.10815	145.97968	59.75275	
86	0.850	276.22272	149.26282	194.89807	279.10675	145.99428	60.12160	
87	0.860	276.17062	149.29074	195.30582	279.10501	146.00993	60.50673	
88	0.870	276.13318	149.31355	195.72351	279.09726	146.02805	60.90583	
89	0.880	276.11325	149.33273	196.14731	279.08258	146.04893	61.31461	
90	0.890	276.10150	149.35181	196.57794	279.06561	146.07069	61.72984	
91	0.900	276.10074	149.37045	197.01115	279.05203	146.09053	62.15194	
92	0.910	276.12115	149.38557	197.43987	279.04422	146.10710	62.58358	
93	0.920	276.15570	149.39728	197.86493	279.04108	146.12115	63.02466	
94	0.930	276.18039	149.40981	198.29568	279.04129	146.13358	63.46992	
95	0.940	276.18063	149.42569	198.73811	279.04489	146.14397	63.91284	
96	0.950	276.16791	149.44145	199.18671	279.05222	146.15143	64.35110	
97	0.960	276.16531	149.45139	199.63084	279.06232	146.15593	64.78689	
98	0.970	276.18045	149.45406	200.06653	279.07388	146.15825	65.22227	
99	0.980	276.20364	149.45261	200.49628	279.08679	146.15889	65.65538	
100	0.990	276.23187	149.44928	200.91905	279.10135	146.15765	66.08191	
101	1.000	276.27377	149.44337	201.33054	279.11667	146.15451	66.49987	
102	1.010	276.32678	149.43553	201.73392	279.13095	146.15022	66.91251	
103	1.020	276.37097	149.42976	202.14079	279.14368	146.14615	67.32611	
104	1.030	276.39362	149.42958	202.55872	279.15656	146.14310	67.74423	
105	1.040	276.40625	149.43420	202.98354	279.17117	146.14075	68.16505	
106	1.050	276.42731	149.44023	203.40697	279.18698	146.13834	68.58520	
107	1.060	276.45508	149.44617	203.82927	279.20206	146.13570	69.00459	
108	1.070	276.46899	149.45387	204.26048	279.21536	146.13358	69.42656	
109	1.080	276.45673	149.46524	204.70877	279.22806	146.13289	69.85483	
110	1.090	276.42880	149.47884	205.17065	279.24182	146.13412	70.29108	
111	1.100	276.40375	149.49120	205.63513	279.25629	146.13713	70.73413	
112	1.110	276.38599	149.50073	206.09584	279.26785	146.14163	71.18073	
113	1.120	276.36969	149.50824	206.55251	279.27176	146.14734	71.62740	
114	1.130	276.35870	149.51358	207.00198	279.26666	146.15399	72.07204	
115	1.140	276.36261	149.51569	207.43800	279.25513	146.16148	72.51384	
116	1.150	276.37650	149.51566	207.86002	279.23868	146.16998	72.95169	
117	1.160	276.38724	149.51596	208.27211	279.21472	146.17963	73.38316	
118	1.170	276.39825	149.51630	208.67393	279.18106	146.19028	73.80579	
119	1.180	276.42529	149.51404	209.06339	279.14090	146.20158	74.21928	
120	1.190	276.46738	149.50912	209.44691	279.10156	146.21289	74.62671	
121	1.200	276.50327	149.50490	209.83685	279.06906	146.22275	75.03358	
122	1.210	276.51953	149.50394	210.23788	279.04544	146.22906	75.44446	
123	1.220	276.52985	149.50400	210.64270	279.03027	146.23010	75.85966	
124	1.230	276.55829	149.50002	211.04253	279.02261	146.22546	76.27600	
125	1.240	276.60895	149.48965	211.43857	279.02173	146.21655	76.69186	
126	1.250	276.66367	149.47546	211.84068	279.02664	146.20610	77.11007	
127	1.260	276.70627	149.46133	212.25639	279.03662	146.19601	77.53534	
128	1.270	276.73401	149.44966	212.68518	279.05219	146.18660	77.96913	
129	1.280	276.74573	149.44183	213.12436	279.07458	146.17754	78.40746	
130	1.290	276.73450	149.43837	213.57492	279.10355	146.16891	78.84442	
